<?xml version="1.0" encoding="UTF-8" standalone="no"?>
<!-- Generator: Adobe Illustrator 19.0.1, SVG Export Plug-In . SVG Version: 6.00 Build 0)  -->

<svg
   xmlns:dc="http://purl.org/dc/elements/1.1/"
   xmlns:cc="http://creativecommons.org/ns#"
   xmlns:rdf="http://www.w3.org/1999/02/22-rdf-syntax-ns#"
   xmlns:svg="http://www.w3.org/2000/svg"
   xmlns="http://www.w3.org/2000/svg"
   xmlns:xlink="http://www.w3.org/1999/xlink"
   xmlns:sodipodi="http://sodipodi.sourceforge.net/DTD/sodipodi-0.dtd"
   xmlns:inkscape="http://www.inkscape.org/namespaces/inkscape"
   version="1.1"
   id="Layer_1"
   x="0px"
   y="0px"
   viewBox="0 0 168 68"
   enable-background="new 0 0 500 500"
   xml:space="preserve"
   inkscape:version="0.91 r13725"
   sodipodi:docname="pixi.tiny.logo.svg"
   width="168"
   height="68"><metadata
     id="metadata31"><rdf:RDF><cc:Work
         rdf:about=""><dc:format>image/svg+xml</dc:format><dc:type
           rdf:resource="http://purl.org/dc/dcmitype/StillImage" /><dc:title></dc:title></cc:Work></rdf:RDF></metadata><defs
     id="defs29" /><sodipodi:namedview
     pagecolor="#ffffff"
     bordercolor="#666666"
     borderopacity="1"
     objecttolerance="10"
     gridtolerance="10"
     guidetolerance="10"
     inkscape:pageopacity="0"
     inkscape:pageshadow="2"
     inkscape:window-width="1920"
     inkscape:window-height="1041"
     id="namedview27"
     showgrid="false"
     fit-margin-top="0"
     fit-margin-left="0"
     fit-margin-right="0"
     fit-margin-bottom="0"
     inkscape:zoom="1.6243437"
     inkscape:cx="251.23127"
     inkscape:cy="-182"
     inkscape:window-x="0"
     inkscape:window-y="0"
     inkscape:window-maximized="1"
     inkscape:current-layer="Layer_1" /><rect
     x="0"
     y="0"
     width="168"
     height="68"
     id="rect3"
     style="fill:#101228" /><g
     id="g5"><path
       d="m 32.9,23.7 c 1.7,-2.7 4.5,-4.2 7.9,-4.2 5.9,0 10.2,5.5 10.2,13.7 0,9.8 -5.6,14.2 -11,14.2 -2.9,0 -5.2,-1.3 -6.3,-3.1 l -0.1,0 0,13.3 -7.1,0 0,-28.8 c 0,-3.5 -0.1,-6.3 -0.2,-8.7 l 6.2,0 0.4,3.6 0,0 z M 33.6,36 c 0,3.9 2.4,5.8 4.8,5.8 3.6,0 5.5,-3.6 5.5,-8.4 0,-4.8 -1.8,-8.2 -5.3,-8.2 -2.7,0 -4.9,2.6 -4.9,5.8 l 0,5 z"
       id="path7"
       inkscape:connector-curvature="0"
       style="fill:#d90057" /><path
       d="m 56,16.5 c -2.3,0 -3.8,-1.6 -3.8,-3.8 0,-2.2 1.6,-3.8 3.8,-3.8 2.3,0 3.8,1.6 3.8,3.8 0,2.4 -1.6,3.8 -3.8,3.8 z m 3.6,30.3 -7.1,0 0,-26.7 7.1,0 0,26.7 z"
       id="path9"
       inkscape:connector-curvature="0"
       style="fill:#d90057" /><path
       d="m 84.2,20.1 -8,12.9 8.1,13.8 -8,0 -2.6,-5.2 c -0.7,-1.4 -1.3,-2.8 -2,-4.2 l -0.1,0 c -0.6,1.4 -1.3,2.8 -2,4.2 l -2.5,5.2 -7.6,0 8.1,-13.5 -7.9,-13.2 7.9,0 2.5,4.8 c 0.8,1.5 1.4,2.9 2.1,4.2 l 0.1,0 c 0.7,-1.4 1.3,-2.9 2,-4.3 l 2.4,-4.8 7.5,0 z"
       id="path11"
       inkscape:connector-curvature="0"
       style="fill:#d90057" /><path
       d="m 87.8,16.5 c -2.3,0 -3.8,-1.6 -3.8,-3.8 0,-2.2 1.6,-3.8 3.8,-3.8 2.3,0 3.8,1.6 3.8,3.8 0,2.4 -1.6,3.8 -3.8,3.8 z m 3.6,30.3 -7.1,0 0,-26.7 7.1,0 0,26.7 z"
       id="path13"
       inkscape:connector-curvature="0"
       style="fill:#d90057" /><path
       d="m 92.7,44.3 c 0,-1.6 1.1,-2.8 2.7,-2.8 1.6,0 2.7,1.1 2.7,2.8 0,1.7 -1,2.9 -2.7,2.9 -1.7,0 -2.7,-1.3 -2.7,-2.9 z"
       id="path15"
       inkscape:connector-curvature="0"
       style="fill:#d90057" /><path
       d="m 99.6,27 4.4,-1.3 0,4.3 3.7,0 0,3.3 -3.7,0 0,7.3 c 0,2 0.6,2.8 2,2.8 0.6,0 1,-0.1 1.4,-0.1 l 0.1,3.4 c -0.6,0.2 -1.7,0.4 -3,0.4 -4.8,0 -4.9,-4.2 -4.9,-6 l 0,-7.7 -2.2,0 0,-3.3 2.2,0 0,-3.1 z"
       id="path17"
       inkscape:connector-curvature="0"
       style="fill:#ffffff" /><path
       d="m 110.4,27.9 c -1.4,0 -2.4,-1 -2.4,-2.4 0,-1.4 1,-2.4 2.4,-2.4 1.4,0 2.4,1 2.4,2.4 0,1.5 -1,2.4 -2.4,2.4 z m 2.3,18.9 -4.4,0 0,-16.7 4.4,0 0,16.7 z"
       id="path19"
       inkscape:connector-curvature="0"
       style="fill:#ffffff" /><path
       d="m 128.7,46.8 -4.4,0 0,-9.8 c 0,-2 -0.7,-3.7 -2.5,-3.7 -1.2,0 -2.8,0.9 -2.8,3.5 l 0,9.9 -4.4,0 0,-11.6 c 0,-2 -0.1,-3.5 -0.1,-5 l 3.8,0 0.2,2.3 0.1,0 c 0.8,-1.2 2.4,-2.6 4.8,-2.6 3.1,0 5.4,2.1 5.4,6.8 l 0,10.2 z"
       id="path21"
       inkscape:connector-curvature="0"
       style="fill:#ffffff" /><path
       d="m 144.3,30.1 -3.8,11.6 c -1.9,5.4 -3.3,8.3 -5.2,10.2 -1.6,1.6 -3.3,2.2 -4.3,2.3 l -1.1,-3.8 c 0.7,-0.2 1.6,-0.7 2.3,-1.2 1.5,-1 2.2,-2.8 2.2,-3.1 0,-0.2 -0.1,-0.4 -0.2,-0.8 l -5.6,-15.4 4.9,0 2.5,8.7 c 0.3,1 0.6,2.2 0.8,3.1 l 0.1,0 c 0.2,-0.9 0.5,-2.1 0.7,-3.1 l 2.1,-8.7 4.6,0 z"
       id="path23"
       inkscape:connector-curvature="0"
       style="fill:#ffffff" /></g><image
     display="none"
     overflow="visible"
     width="3840"
     height="1080"
     id="image25"
     style="display:none;overflow:visible"
     x="-1846"
     y="-396" /></svg>
